<?xml version="1.0" encoding="UTF-8"?>
<svg xmlns="http://www.w3.org/2000/svg" version="1.1" xmlns:xlink="http://www.w3.org/1999/xlink" viewBox="0 0 24 24">
  <defs>
    <style>
      .cls-1 {
        fill: #353535;
      }

      .cls-2 {
        fill: url(#linear-gradient);
      }
    </style>
    <linearGradient id="linear-gradient" x1="12.5" y1="24" x2="12.5" y2=".3" gradientUnits="userSpaceOnUse">
      <stop offset="0" stop-color="#ffc77d"/>
      <stop offset="1" stop-color="#d0ffbf"/>
    </linearGradient>
  </defs>
  <!-- Generator: Adobe Illustrator 28.6.0, SVG Export Plug-In . SVG Version: 1.2.0 Build 709)  -->
  <g>
    <g id="Layer_1">
      <path class="cls-2" d="M23.9,14.1l-1.6-6.1c-.6-2.4-1.8-4.3-3.8-5.7-1.9-1.5-4.1-2.2-6.6-2.2s-5.5,1-7.6,3.2c-2.1,2.1-3.2,4.6-3.2,7.6s.3,3,.9,4.4,1.5,2.6,2.7,3.6v5.2h10.8v-2.4h2.4c.7,0,1.2-.2,1.7-.7s.7-1,.7-1.7v-3.6h2.4c.4,0,.7-.2,1-.5s.3-.7.2-1Z"/>
      <path class="cls-1" d="M13.2,4.4l-1.4.6c-.1,0-.2-.2-.3-.3-.1,0-.3-.2-.4-.2l-.2-1.5h-2.4l-.2,1.5c-.2,0-.3.1-.4.2-.1,0-.2.2-.3.3l-1.4-.6-1.2,2,1.2.9c0,.2,0,.3,0,.5s0,.3,0,.5l-1.2.9,1.2,2,1.4-.6c0,0,.2.2.3.3.1,0,.3.1.4.2l.2,1.5h2.4l.2-1.5c.2,0,.3-.1.4-.2.1,0,.2-.2.3-.3l1.4.6,1.2-2-1.2-.9c0-.2,0-.3,0-.5s0-.3,0-.5l1.2-.9-1.2-2ZM10.9,9.1c-.3.3-.8.5-1.3.5s-.9-.2-1.3-.5-.5-.8-.5-1.3.2-.9.5-1.3c.3-.4.8-.5,1.3-.5s.9.2,1.3.5c.3.3.5.8.5,1.3s-.2.9-.5,1.3Z"/>
      <circle class="cls-1" cx="18" cy="10" r="1.4"/>
      <rect class="cls-1" x="16.2" y="17.1" width="4.1" height="1.5"/>
    </g>
  </g>
</svg>