<?xml version="1.0" encoding="UTF-8"?>
<svg xmlns="http://www.w3.org/2000/svg" version="1.1" xmlns:xlink="http://www.w3.org/1999/xlink" viewBox="0 0 24 24">
  <defs>
    <style>
      .cls-1 {
        fill: #fff;
      }

      .cls-2 {
        fill: url(#linear-gradient);
      }
    </style>
    <linearGradient id="linear-gradient" x1="12" y1="785.9" x2="12" y2="767.5" gradientTransform="translate(24 -766) rotate(-180) scale(1 -1)" gradientUnits="userSpaceOnUse">
      <stop offset="0" stop-color="#e9007b"/>
      <stop offset="1" stop-color="#008ad4"/>
    </linearGradient>
  </defs>
  <!-- Generator: Adobe Illustrator 28.6.0, SVG Export Plug-In . SVG Version: 1.2.0 Build 709)  -->
  <g>
    <g id="Layer_1">
      <g id="Layer_1-2" data-name="Layer_1">
        <path class="cls-2" d="M19.2,19.2H2.4c-.7,0-1.2-.2-1.7-.7S0,17.5,0,16.8V2.4C0,1.7.2,1.2.7.7,1.2.2,1.7,0,2.4,0h19.2c.7,0,1.2.2,1.7.7.5.5.7,1,.7,1.7v21.6s-4.8-4.8-4.8-4.8Z"/>
      </g>
      <path class="cls-1" d="M6.2,14.3L10.5,3.7h3l4.3,10.6h-2.8l-1-2.6h-4.1l-1,2.6h-2.7ZM10.7,9.7h2.6l-1.3-3.4-1.3,3.4Z"/>
    </g>
  </g>
</svg>