<?xml version="1.0" encoding="UTF-8"?>
<svg xmlns="http://www.w3.org/2000/svg" version="1.1" xmlns:xlink="http://www.w3.org/1999/xlink" viewBox="0 0 24 24">
  <defs>
    <style>
      .cls-1 {
        fill: #fff;
      }

      .cls-2 {
        fill: url(#linear-gradient);
      }
    </style>
    <linearGradient id="linear-gradient" x1="12" y1="785.9" x2="12" y2="767.5" gradientTransform="translate(0 -766)" gradientUnits="userSpaceOnUse">
      <stop offset="0" stop-color="#ffa300"/>
      <stop offset="1" stop-color="#ffeb00"/>
    </linearGradient>
  </defs>
  <!-- Generator: Adobe Illustrator 28.6.0, SVG Export Plug-In . SVG Version: 1.2.0 Build 709)  -->
  <g>
    <g id="Layer_1">
      <g id="Layer_1-2" data-name="Layer_1">
        <path class="cls-2" d="M0,24V2.4c0-.7.2-1.2.7-1.7C1.2.2,1.7,0,2.4,0h19.2C22.3,0,22.8.2,23.3.7c.5.5.7,1,.7,1.7v14.4c0,.7-.2,1.2-.7,1.7s-1,.7-1.7.7H4.8L0,24Z"/>
      </g>
      <path class="cls-1" d="M10.6,11.4c0-.5,0-1,0-1.4s.2-.7.4-1c.2-.3.5-.6.8-.8l.9-.7c.3-.2.5-.4.7-.6.1-.2.2-.4.2-.6s0-.4-.2-.6c-.1-.2-.3-.3-.6-.4-.2-.1-.5-.2-.8-.2-.5,0-1,.1-1.4.4-.4.3-.7.6-.9,1.1l-2.3-.9c.2-.6.6-1.1,1-1.6.5-.4,1-.8,1.6-1,.6-.2,1.3-.4,2-.4s1.5.1,2.2.4,1.1.7,1.5,1.2c.4.5.6,1.1.6,1.7s0,.8-.2,1.2c-.1.3-.4.7-.7,1s-.8.7-1.3,1.1l-.4.3c-.3.2-.6.5-.7.7-.1.3-.2.6-.2,1h-2.4ZM11.8,15.4c-.4,0-.8-.2-1.1-.5-.3-.3-.5-.7-.5-1.1s.2-.8.5-1.1.7-.5,1.1-.5.8.2,1.1.5c.3.3.5.7.5,1.1s-.2.8-.5,1.1c-.3.3-.7.5-1.1.5Z"/>
    </g>
  </g>
</svg>