<?xml version="1.0" encoding="UTF-8"?>
<svg xmlns="http://www.w3.org/2000/svg" version="1.1" xmlns:xlink="http://www.w3.org/1999/xlink" viewBox="0 0 24 24">
  <defs>
    <style>
      .cls-1 {
        fill: #fff;
      }

      .cls-2 {
        fill: url(#linear-gradient);
      }
    </style>
    <linearGradient id="linear-gradient" x1="12" y1="6.1" x2="12" y2="24.5" gradientTransform="translate(0 26) scale(1 -1)" gradientUnits="userSpaceOnUse">
      <stop offset="0" stop-color="#e9007b"/>
      <stop offset="1" stop-color="#ff9f00"/>
    </linearGradient>
  </defs>
  <!-- Generator: Adobe Illustrator 28.6.0, SVG Export Plug-In . SVG Version: 1.2.0 Build 709)  -->
  <g>
    <g id="Layer_1">
      <path class="cls-2" d="M0,24V2.4C0,1.7.2,1.2.7.7S1.7,0,2.4,0h19.2C22.3,0,22.8.2,23.3.7s.7,1,.7,1.7v14.4c0,.7-.2,1.2-.7,1.7s-1,.7-1.7.7H4.8L0,24Z"/>
      <polygon class="cls-1" points="12 2.8 13.5 7.4 18.5 7.4 14.5 10.3 16 15 12 12.1 8 15 9.5 10.3 5.5 7.4 10.5 7.4 12 2.8"/>
    </g>
  </g>
</svg>